<svg width="380" height="240" xmlns="http://www.w3.org/2000/svg" stroke="null" vector-effect="non-scaling-stroke"><path fill="none" d="M-1-1h382v242H-1z"/><g fill="#532a84" stroke-width=".1"><path d="M186.001 15.95c-1.055 4.43-2.742 11.603-3.375 15.823-1.688 9.071-2.954 10.337-16.245 15.19-20.675 7.595-35.233 23.418-38.397 41.772l-1.477 7.595 8.228-1.055c6.33-.844 12.658.633 27.004 6.54 10.127 4.22 22.363 7.595 26.794 7.595 4.43 0 16.667-3.375 27.426-7.595 12.448-4.852 21.941-7.173 26.372-6.75 6.75.843 6.962.632 5.485-5.486-4.008-19.62-14.346-31.857-36.076-41.561-7.173-3.376-13.502-7.806-14.135-9.705-.422-2.11-2.11-9.283-3.587-16.034-1.477-6.751-3.375-12.658-4.22-13.291-1.054-.422-2.742 2.531-3.797 6.962zm-39.24 72.785c1.265.844.421 1.688-1.477 1.688-2.11 0-3.798-1.477-3.798-3.587 0-1.898.633-2.531 1.688-1.476.844 1.054 2.532 2.531 3.586 3.375zm87.553-.422c0 1.055-1.055 2.11-2.32 2.11-1.056 0-1.478-1.055-.845-2.11.633-1.266 1.688-2.11 2.321-2.11.422 0 .844.844.844 2.11zm-117.723 29.958c-11.603 8.017-15.4 13.502-12.025 16.878 1.055 1.055 32.279-5.696 33.756-7.173.421-.422-1.477-4.641-4.009-9.705l-4.641-8.86-13.08 8.86z"/><path d="M141.486 111.098c0 3.587 12.236 20.886 19.41 27.005 18.143 15.823 40.506 14.346 58.439-3.798 5.907-6.118 14.979-20.253 14.979-23.84 0-2.531-5.063-.633-10.97 4.22-8.65 7.384-21.098 10.126-41.14 9.072-14.98-.844-18.777-1.9-28.06-7.595-11.603-7.174-12.658-7.595-12.658-5.064zm80.17 10.97c0 1.056-1.055 2.11-2.321 2.11-1.055 0-1.477-1.054-.844-2.11.633-1.265 1.688-2.109 2.32-2.109.423 0 .845.844.845 2.11zm-46.836 9.495c-.633.632-1.899-.422-2.532-2.532-1.266-2.954-1.055-3.165 1.055-1.266 1.477 1.477 2.11 3.165 1.477 3.798zm32.067-3.165c0 1.055-.843 2.11-2.11 2.11-1.054 0-2.109-1.055-2.109-2.11 0-1.266 1.055-2.11 2.11-2.11 1.266 0 2.11.844 2.11 2.11zm-23.206 2.11c0 1.055-.844 2.11-2.11 2.11-1.055 0-2.11-1.055-2.11-2.11 0-1.266 1.055-2.11 2.11-2.11 1.266 0 2.11.844 2.11 2.11zm7.173 1.055c-.844 1.687-1.477 3.164-1.9 3.164-.421 0-1.054-1.477-1.898-3.164-.633-1.9 0-3.165 1.899-3.165s2.532 1.266 1.899 3.165zm7.595-1.055c0 1.055-.844 2.11-2.11 2.11-1.055 0-2.11-1.055-2.11-2.11 0-1.266 1.055-2.11 2.11-2.11 1.266 0 2.11.844 2.11 2.11zm42.616-11.604l-4.641 9.494 5.907 1.266c3.164.633 10.548 2.531 16.667 4.008 5.907 1.477 11.392 2.11 12.025 1.477 3.165-2.954.422-8.228-6.751-13.291-19.62-13.713-17.933-13.502-23.207-2.954zM37.055 187.47v10.338l8.439.844 8.439.844-8.861.21c-12.448.633-11.393 4.642 1.055 4.642l9.915.21-9.915 4.431C40.43 211.31 36 214.264 36 215.32c0 1.265 1.266 1.687 2.743 1.054 1.265-.633 6.118-2.531 10.548-4.43 4.853-2.11 7.806-2.532 7.806-1.266s-4.641 4.22-10.548 6.751c-5.697 2.32-9.916 5.064-9.494 6.118.633.844 5.485-.21 10.548-2.32 9.494-4.009 9.494-4.009 9.494 0 0 2.32 1.055 4.22 2.11 4.22 1.266 0 2.11-4.853 2.11-10.55v-10.548h9.493c5.275 0 9.494-1.055 9.494-2.11 0-1.266-5.274-2.11-11.603-2.11H57.097v-23.206H37.055v10.548zm14.346-4.852c-1.477.422-4.43.422-6.33 0-2.109-.633-.843-1.055 2.532-1.055 3.587 0 5.064.422 3.798 1.055zm0 10.548c-1.477.422-4.43.422-6.33 0-2.109-.633-.843-1.054 2.532-1.054 3.587 0 5.064.421 3.798 1.054z"/><path d="M61.317 178.82c0 1.266 3.375 2.321 7.384 2.743 5.907.422 6.962 1.266 5.274 3.797-1.688 2.743-2.743 2.743-6.54.422-5.485-3.586-8.65-1.054-3.376 2.743 3.798 2.743 3.798 2.954 0 4.852-2.11 1.266-3.164 2.743-2.32 3.587.633.633 3.164.21 5.485-1.266 3.586-2.11 4.852-2.11 7.595.211 1.899 1.477 4.008 2.11 4.852 1.266.844-.633-.21-2.532-2.32-4.009-3.376-2.531-3.376-2.953-.422-5.485 1.898-1.688 3.375-4.641 3.375-6.751 0-3.376-1.688-4.008-9.494-4.008-5.274 0-9.493.843-9.493 1.898zm27.426 1.266c0 1.899 1.055 3.165 2.32 2.743 1.267-.422 2.321-1.688 2.321-2.743s-1.054-2.32-2.32-2.743c-1.266-.421-2.32.844-2.32 2.743zm27.004-1.899c-1.054.844-1.687 4.22-1.687 7.595 0 5.486-.633 5.908-8.44 5.908-4.852 0-8.438 1.054-8.438 2.32 0 1.688 4.008 2.11 13.713 1.266 17.722-1.688 21.941-4.008 20.675-10.97-1.265-6.54-5.274-7.173-4.43-.633.422 3.586-.633 5.063-4.008 5.485-3.798.633-4.642-.422-5.275-5.907-.422-3.798-1.266-5.908-2.11-5.064zm133.757 7.595c-.422 7.384-1.266 10.127-3.587 10.127-1.687 0-3.164.844-3.164 2.11 0 1.055 1.477 2.11 3.164 2.11 2.11 0 3.165 3.375 3.798 13.08l.633 13.291.422-13.291c.422-10.127 1.055-13.08 3.586-13.08 1.688 0 3.165-1.055 3.165-2.11 0-1.266-1.477-2.11-2.954-2.11-2.32 0-3.375-2.954-4.008-10.127l-.633-9.915-.422 9.915zm22.785-6.751c0 1.055-2.32 2.11-5.274 2.11s-5.275.844-5.275 2.11c0 1.055 2.321 2.11 5.275 2.11 7.173 0 6.75 3.797-.422 4.852l-5.908.844 5.908.422c7.173.21 7.595 4.43.422 4.43-2.954 0-5.275.844-5.275 2.11 0 1.055.633 2.11 1.688 2.11.844 0 1.055 5.696.844 12.658-.633 8.228 0 12.658 1.477 12.658 1.266 0 2.32-1.477 2.32-3.164 0-2.11 2.11-3.165 6.963-3.165 4.852 0 5.907.633 3.586 2.11-3.797 2.32-1.477 5.274 3.165 3.586 4.008-1.688 4.641-21.73.633-23.207-1.688-.633-1.266-1.266 1.054-1.266 5.697-.21 4.22-4.43-1.687-4.43-6.54 0-6.962-3.586-.422-4.852l4.641-.844-4.641-.422c-6.54-.422-6.119-4.43.422-4.43 2.953 0 5.274-1.055 5.274-2.11 0-1.266-2.32-2.11-5.274-2.11s-5.275-1.055-5.275-2.11c0-1.266-.844-2.11-2.11-2.11-1.054 0-2.11.844-2.11 2.11zm8.439 27.427c0 1.055-2.743 2.11-6.33 2.11-3.375 0-6.329-1.055-6.329-2.11 0-1.266 2.954-2.11 6.33-2.11 3.586 0 6.329.844 6.329 2.11zm0 7.595c0 .422-2.743.844-6.33.844-3.375 0-6.329-.844-6.329-1.688 0-1.055 2.954-1.477 6.33-.844 3.586.422 6.329 1.266 6.329 1.688zm14.768-33.967c0 1.688 1.055 3.165 2.11 3.165 1.265 0 2.11-1.477 2.11-3.165s-.845-3.164-2.11-3.164c-1.055 0-2.11 1.476-2.11 3.164zm23.207 1.055c0 2.32-1.477 4.22-3.165 4.22s-3.164-1.688-3.164-3.587c0-5.063-3.376-.844-5.064 6.118-.844 3.587-.422 5.907.844 5.907 1.055 0 2.11-1.055 2.11-2.11 0-1.265 1.899-2.11 4.22-2.11 2.742 0 4.219 1.478 4.219 4.22 0 3.376-1.477 4.22-7.806 4.43-5.064.212-6.118.634-3.165 1.267 5.485 1.054 6.118 6.118 1.055 11.603-1.899 2.11-2.954 4.43-2.11 5.063 2.11 2.11 5.064-.844 8.65-8.65 4.22-8.65 7.595-9.704 7.595-2.32 0 8.439 2.32 11.814 7.595 11.814s9.072-5.274 6.118-8.017c-.843-.844-2.11-.21-2.531 1.055-.633 1.477-2.321 2.743-4.009 2.743-5.696 0-2.742-11.182 3.376-12.87 4.43-1.265 4.22-1.476-2.532-1.687-6.54-.211-8.017-1.055-8.017-4.43 0-3.165 1.477-4.22 5.275-4.22 2.953 0 5.274-1.055 5.274-2.11 0-1.266-2.32-2.11-5.274-2.11-3.798 0-5.275-1.054-5.275-4.219 0-2.32-.844-4.22-2.11-4.22-1.054 0-2.11 1.9-2.11 4.22zm-215.825-.633c-2.11 1.899-1.688 6.962.422 6.962 1.055 0 2.32-1.899 2.954-4.22 1.055-4.219-.633-5.485-3.376-2.742zm53.376.633c0 1.055 1.266 2.11 2.954 2.11 2.742 0 2.32 6.54-2.11 27.215-1.055 4.852-.844 6.751.633 5.907 2.743-1.687 6.962-17.932 6.962-26.582 0-3.587 1.055-6.54 2.11-6.54 1.266 0 2.11 8.439 2.11 21.097 0 12.658.843 21.097 2.11 21.097 1.265 0 2.109-8.439 2.109-21.097V183.25h5.274c2.954 0 5.275-1.055 5.275-2.11 0-1.266-5.908-2.11-13.714-2.11s-13.713.844-13.713 2.11zm63.292 0c0 1.055-2.743 2.11-6.33 2.11-3.375 0-6.329.844-6.329 2.11 0 1.054 2.954 2.11 6.33 2.11h6.329v16.877c0 9.916-.844 16.878-2.11 16.878-1.055 0-2.11.844-2.11 2.11 0 3.375 5.697 2.32 7.173-1.266.633-1.9 1.266-10.338 1.266-18.777 0-15.19 0-15.612 5.697-16.245 2.953-.422 5.907-1.899 6.54-3.164.422-1.9-1.055-2.321-5.697-1.477-4.219.844-6.54.422-6.54-1.055 0-1.266-.844-2.32-2.11-2.32-1.054 0-2.11.843-2.11 2.109zm-80.17 2.109c0 1.056 1.055 2.11 2.11 2.11 3.165 0 2.532 12.026-.422 13.503-2.11 1.055-2.11 1.476 0 2.531 1.266.633 2.532 2.954 2.532 5.275 0 2.11 1.055 4.008 2.11 4.008 1.265 0 2.11-1.477 2.11-3.375 0-1.9 1.687-4.853 3.797-6.33 3.375-2.742 3.375-2.742 0-2.953-2.743 0-3.798-1.688-3.798-5.486 0-3.164 1.688-6.962 3.798-8.438 3.164-2.532 2.742-2.743-4.22-2.954-4.43 0-8.017.844-8.017 2.11zm50.634 0c0 1.056 1.477 2.11 3.164 2.11 2.11 0 3.165 2.11 3.165 6.33 0 4.219-1.055 6.329-3.165 6.329-1.687 0-3.164.844-3.164 2.11 0 1.054 1.266 2.11 2.953 2.11 1.688 0 3.587 2.109 4.009 4.64l.844 4.853.422-4.852c0-2.532 1.687-4.642 3.375-4.642s3.165-1.055 3.165-2.11c0-1.265-1.477-2.11-3.165-2.11-2.11 0-3.164-2.109-3.164-6.328 0-4.22 1.054-6.33 3.164-6.33 1.688 0 3.165-1.054 3.165-2.11 0-1.265-3.376-2.109-7.384-2.109-4.009 0-7.384.844-7.384 2.11z"/><path d="M242.753 187.681c0 3.376.844 5.907 1.899 5.274 1.687-1.054.632-11.814-1.055-11.814-.422 0-.844 2.954-.844 6.54zm12.658 0c0 3.587.844 5.907 2.11 5.063 1.266-.632 2.11-3.586 2.11-6.54 0-2.742-.844-5.063-2.11-5.063-1.055 0-2.11 2.954-2.11 6.54zm-166.035 2.954c0 5.907 2.532 6.962 4.43 1.898 1.9-5.063 1.477-7.173-1.687-7.173-1.688 0-2.743 2.11-2.743 5.275zm86.71 4.641c2.11 12.026 5.696 21.941 7.384 20.886 2.11-1.265-4.43-28.692-6.963-28.692-.843 0-1.054 3.587-.421 7.806zm118.355 10.971c0 12.236.633 18.354 2.11 17.088 1.266-.843 7.806-.843 14.768.211 12.447 1.688 28.481.633 28.481-2.11 0-.843-7.384-1.265-16.245-1.265-23.629 0-23.84-.211-23.84-17.933 0-10.337-.844-14.768-2.531-14.768-2.11 0-2.743 5.063-2.743 18.777zM208.997 193.8c0 1.054 1.477 2.109 3.165 2.109s3.164-1.055 3.164-2.11c0-1.266-1.476-2.11-3.164-2.11-1.688 0-3.165.844-3.165 2.11zm17.933 6.75c1.688 9.494 6.962 21.73 8.65 20.043.633-.633-.633-6.118-2.532-12.237-2.743-8.228-2.954-11.392-1.266-12.025 4.22-1.266 2.743-4.641-1.899-4.641-4.008 0-4.219.843-2.953 8.86zm-129.748-.422c0 1.055 5.485 2.321 12.236 2.743 11.604.633 11.393.633-3.164 1.055l-15.401.422v14.979l19.62-.633 19.41-.633.633-5.907c.421-3.798-.422-6.118-2.532-6.962-1.899-.633-3.376-2.532-3.376-4.22 0-2.32-3.375-2.953-13.713-2.953-7.595 0-13.713.844-13.713 2.11zm8.017 9.916c-2.11.422-5.485.422-7.384 0-2.11-.633-.422-1.055 3.586-1.055 4.009 0 5.697.422 3.798 1.055zm18.987 0c-2.11.422-5.907.422-8.439 0-2.742-.422-1.054-.844 3.587-.844 4.641-.21 6.751.211 4.852.844zm-18.987 4.22c-2.11.422-5.485.422-7.384 0-2.11-.633-.422-1.055 3.586-1.055 4.009 0 5.697.422 3.798 1.055zm18.987 0c-2.11.422-5.907.422-8.439 0-2.742-.422-1.054-.844 3.587-.844 4.641-.211 6.751.21 4.852.844zm88.609-12.87c-1.055.844-1.688 3.376-1.688 5.486s-1.688 6.329-3.587 9.493c-2.953 4.43-2.953 5.275-.633 4.43 4.22-1.265 8.861-11.18 8.017-16.666-.422-2.532-1.265-3.587-2.11-2.743zm29.114 11.604c-1.266 9.705-.633 14.768 1.688 12.236 1.476-1.688 2.742-22.996 1.265-22.996-.843 0-2.11 4.853-2.953 10.76zm13.502.844c0 6.329 1.055 11.603 2.11 11.603 1.266 0 2.11-5.274 2.11-11.603 0-6.33-.844-11.604-2.11-11.604-1.055 0-2.11 5.275-2.11 11.604zm-189.875-1.055c2.743 5.063 12.236 11.603 14.135 9.705.844-.633-.633-2.743-3.164-4.642-5.908-4.008-5.908-6.54.21-7.806 2.532-.422.634-1.055-4.43-1.266-8.439-.21-8.86 0-6.75 4.009zm78.693 1.477c-2.743.422-4.853 1.898-4.853 3.164 0 1.266 2.11 1.688 4.853.844 2.531-.633 5.907-1.266 7.384-1.266 1.477 0 2.11-1.055 1.477-2.11-.633-1.265-1.9-1.898-2.743-1.898-.844.21-3.587.844-6.118 1.266zm51.688 0c-5.907.844-8.439 4.852-3.165 4.852 5.064 0 12.026-2.532 12.026-4.43 0-1.055-.633-1.688-1.477-1.688-1.055.21-4.22.844-7.384 1.266zm-109.284 9.071c0 1.266 9.072 2.11 23.207 2.11 14.135 0 23.207-.844 23.207-2.11 0-1.265-9.072-2.11-23.207-2.11-14.135 0-23.207.845-23.207 2.11z"/></g></svg>