<svg width="105" height="66" xmlns="http://www.w3.org/2000/svg" stroke="null" vector-effect="non-scaling-stroke"><path fill="none" d="M-1-1h107v68H-1z"/><g fill="#532a84" stroke-width=".1"><path d="M52.437 2.826c-.313 1.312-.813 3.437-1 4.687-.5 2.688-.875 3.063-4.813 4.5-6.124 2.25-10.437 6.938-11.374 12.375l-.438 2.25 2.438-.312c1.875-.25 3.75.187 8 1.937 3 1.25 6.624 2.25 7.937 2.25 1.312 0 4.937-1 8.125-2.25 3.687-1.437 6.5-2.125 7.812-2 2 .25 2.063.188 1.625-1.625-1.187-5.812-4.25-9.437-10.687-12.312-2.125-1-4-2.313-4.188-2.875-.125-.625-.625-2.75-1.062-4.75-.438-2-1-3.75-1.25-3.938-.313-.125-.813.75-1.125 2.063zM40.812 24.388c.375.25.125.5-.437.5-.625 0-1.125-.437-1.125-1.062 0-.563.187-.75.5-.438.25.313.75.75 1.062 1zm25.937-.125c0 .313-.312.625-.687.625-.313 0-.438-.312-.25-.625.187-.375.5-.625.687-.625.125 0 .25.25.25.625zm-34.874 8.875c-3.438 2.375-4.563 4-3.563 5 .313.312 9.563-1.688 10-2.125.125-.125-.437-1.375-1.187-2.875l-1.375-2.625-3.875 2.625z"/><path d="M39.25 31.013c0 1.062 3.625 6.187 5.75 8 5.374 4.687 12 4.25 17.312-1.125 1.75-1.813 4.437-6 4.437-7.063 0-.75-1.5-.187-3.25 1.25-2.562 2.188-6.25 3-12.187 2.688-4.438-.25-5.562-.563-8.312-2.25-3.438-2.125-3.75-2.25-3.75-1.5zM63 34.263c0 .312-.313.625-.688.625-.313 0-.438-.313-.25-.625.187-.375.5-.625.687-.625.125 0 .25.25.25.625zm-13.876 2.812c-.187.188-.562-.125-.75-.75-.375-.875-.312-.937.313-.375.437.438.625.938.437 1.125zm9.5-.937c0 .312-.25.625-.625.625-.312 0-.625-.313-.625-.625 0-.375.313-.625.625-.625.375 0 .625.25.625.625zm-6.875.625c0 .312-.25.625-.625.625-.312 0-.625-.313-.625-.625 0-.375.313-.625.625-.625.375 0 .625.25.625.625zm2.125.312c-.25.5-.437.938-.562.938-.125 0-.313-.438-.563-.938-.187-.562 0-.937.563-.937.562 0 .75.375.562.937zm2.25-.312c0 .312-.25.625-.625.625-.312 0-.625-.313-.625-.625 0-.375.313-.625.625-.625.375 0 .625.25.625.625zm12.626-3.438l-1.376 2.813 1.75.375c.938.187 3.125.75 4.938 1.187 1.75.438 3.375.625 3.562.438.938-.875.125-2.438-2-3.938-5.812-4.062-5.312-4-6.875-.875zM8.312 53.638V56.7l2.5.25 2.5.25-2.625.063C7 57.45 7.313 58.638 11 58.638l2.937.062L11 60.013c-1.688.687-3 1.562-3 1.875 0 .375.375.5.812.312.375-.187 1.813-.75 3.125-1.312 1.438-.625 2.313-.75 2.313-.375s-1.375 1.25-3.125 2c-1.688.687-2.938 1.5-2.813 1.812.188.25 1.625-.062 3.125-.687 2.813-1.188 2.813-1.188 2.813 0 0 .687.312 1.25.625 1.25.375 0 .625-1.438.625-3.125v-3.125h2.812c1.563 0 2.813-.313 2.813-.625 0-.375-1.563-.625-3.438-.625H14.25v-6.875H8.312v3.125zm4.25-1.438c-.437.125-1.312.125-1.875 0-.625-.187-.25-.312.75-.312 1.063 0 1.5.125 1.125.312zm0 3.125c-.437.125-1.312.125-1.875 0-.625-.187-.25-.312.75-.312 1.063 0 1.5.125 1.125.312z"/><path d="M15.5 51.075c0 .375 1 .688 2.187.813 1.75.125 2.063.375 1.563 1.125-.5.812-.813.812-1.938.125-1.625-1.063-2.562-.313-1 .812 1.125.813 1.125.875 0 1.438-.625.375-.937.812-.687 1.062.187.188.937.063 1.625-.375 1.062-.625 1.437-.625 2.25.063.562.437 1.187.625 1.437.375.25-.188-.062-.75-.687-1.188-1-.75-1-.875-.125-1.625.562-.5 1-1.375 1-2 0-1-.5-1.187-2.813-1.187-1.562 0-2.812.25-2.812.562zm8.125.375c0 .563.312.938.687.813.375-.125.688-.5.688-.813 0-.312-.313-.687-.688-.812-.375-.125-.687.25-.687.812zm8-.562c-.313.25-.5 1.25-.5 2.25 0 1.625-.188 1.75-2.5 1.75-1.438 0-2.5.312-2.5.687 0 .5 1.187.625 4.062.375 5.25-.5 6.5-1.187 6.125-3.25-.375-1.937-1.562-2.125-1.312-.187.125 1.062-.188 1.5-1.188 1.625-1.125.187-1.375-.125-1.562-1.75-.125-1.125-.375-1.75-.625-1.5zm39.625 2.25c-.126 2.187-.376 3-1.063 3-.5 0-.938.25-.938.625 0 .312.438.625.938.625.625 0 .937 1 1.125 3.875l.187 3.937.125-3.937c.125-3 .313-3.875 1.063-3.875.5 0 .937-.313.937-.625 0-.375-.437-.625-.875-.625-.687 0-1-.875-1.187-3l-.188-2.938-.125 2.938zm6.75-2c0 .312-.688.625-1.563.625s-1.563.25-1.563.625c0 .312.688.625 1.563.625 2.125 0 2 1.125-.125 1.437l-1.75.25 1.75.125c2.125.063 2.25 1.313.125 1.313-.875 0-1.563.25-1.563.625 0 .312.188.625.5.625.25 0 .313 1.687.25 3.75-.187 2.437 0 3.75.438 3.75.375 0 .687-.438.687-.938 0-.625.625-.937 2.063-.937 1.437 0 1.75.187 1.062.625-1.125.687-.437 1.562.938 1.062 1.187-.5 1.375-6.437.187-6.875-.5-.187-.375-.375.313-.375 1.687-.062 1.25-1.312-.5-1.312-1.938 0-2.063-1.063-.125-1.438l1.375-.25-1.375-.125c-1.938-.125-1.813-1.312.125-1.312.875 0 1.562-.313 1.562-.625 0-.375-.687-.625-1.562-.625s-1.563-.313-1.563-.625c0-.375-.25-.625-.625-.625a.626.626 0 0 0-.625.625zm2.499 8.125c0 .312-.812.625-1.875.625-1 0-1.875-.313-1.875-.625 0-.375.875-.625 1.875-.625 1.063 0 1.875.25 1.875.625zm0 2.25c0 .125-.812.25-1.875.25-1 0-1.875-.25-1.875-.5 0-.313.875-.438 1.875-.25 1.063.125 1.875.375 1.875.5zm4.375-10.063c0 .5.312.938.625.938.375 0 .625-.438.625-.938 0-.5-.25-.937-.625-.937-.313 0-.625.437-.625.937zm6.875.313c0 .687-.438 1.25-.938 1.25-.5 0-.937-.5-.937-1.063 0-1.5-1-.25-1.5 1.813-.25 1.062-.125 1.75.25 1.75.312 0 .625-.313.625-.625 0-.375.562-.625 1.25-.625.812 0 1.25.437 1.25 1.25 0 1-.438 1.25-2.313 1.312-1.5.063-1.812.188-.937.375 1.625.313 1.812 1.813.312 3.438-.562.625-.875 1.312-.625 1.5.625.625 1.5-.25 2.563-2.563 1.25-2.562 2.25-2.875 2.25-.687 0 2.5.687 3.5 2.25 3.5 1.562 0 2.687-1.563 1.812-2.375-.25-.25-.625-.063-.75.312-.187.438-.687.813-1.187.813-1.688 0-.813-3.313 1-3.813 1.312-.375 1.25-.437-.75-.5-1.938-.062-2.375-.312-2.375-1.312 0-.938.437-1.25 1.562-1.25.875 0 1.563-.313 1.563-.625 0-.375-.688-.625-1.563-.625-1.125 0-1.562-.313-1.562-1.25 0-.688-.25-1.25-.625-1.25-.313 0-.625.562-.625 1.25zm-63.937-.188c-.625.563-.5 2.063.125 2.063.313 0 .688-.563.875-1.25.313-1.25-.187-1.625-1-.813zm15.813.188c0 .312.375.625.875.625.812 0 .687 1.937-.625 8.062-.313 1.438-.25 2 .187 1.75.813-.5 2.062-5.312 2.062-7.875 0-1.062.313-1.937.625-1.937.375 0 .625 2.5.625 6.25s.25 6.25.625 6.25.625-2.5.625-6.25v-6.25h1.563c.875 0 1.562-.313 1.562-.625 0-.375-1.75-.625-4.062-.625-2.312 0-4.062.25-4.062.625zm18.749 0c0 .312-.812.625-1.875.625-1 0-1.875.25-1.875.625 0 .312.875.625 1.875.625h1.875v5c0 2.937-.25 5-.625 5a.626.626 0 0 0-.625.625c0 1 1.688.687 2.125-.375.188-.563.375-3.063.375-5.563 0-4.5 0-4.625 1.688-4.812.875-.125 1.75-.563 1.937-.938.125-.562-.312-.687-1.687-.437-1.25.25-1.938.125-1.938-.313 0-.375-.25-.687-.625-.687a.626.626 0 0 0-.625.625zm-23.749.625c0 .312.312.625.625.625.937 0 .75 3.562-.125 4-.625.312-.625.437 0 .75.375.187.75.875.75 1.562 0 .625.312 1.188.625 1.188.375 0 .625-.438.625-1 0-.563.5-1.438 1.125-1.875 1-.813 1-.813 0-.875-.813 0-1.125-.5-1.125-1.625 0-.938.5-2.063 1.125-2.5.937-.75.812-.813-1.25-.875-1.313 0-2.375.25-2.375.625zm14.999 0c0 .312.438.625.938.625.625 0 .937.625.937 1.875s-.312 1.875-.937 1.875c-.5 0-.938.25-.938.625 0 .312.375.625.875.625s1.063.625 1.188 1.375l.25 1.437.125-1.437c0-.75.5-1.375 1-1.375s.937-.313.937-.625c0-.375-.437-.625-.937-.625-.625 0-.938-.625-.938-1.875s.313-1.875.938-1.875c.5 0 .937-.313.937-.625 0-.375-1-.625-2.187-.625-1.188 0-2.188.25-2.188.625z"/><path d="M69.25 53.7c0 1 .25 1.75.562 1.563.5-.313.187-3.5-.313-3.5-.125 0-.25.875-.25 1.937zm3.75 0c0 1.063.25 1.75.624 1.5.375-.187.625-1.062.625-1.937 0-.813-.25-1.5-.625-1.5-.312 0-.625.875-.625 1.937zm-49.188.875c0 1.75.75 2.063 1.313.563.562-1.5.437-2.125-.5-2.125-.5 0-.813.625-.813 1.562zM49.5 55.95c.624 3.563 1.687 6.5 2.187 6.188.625-.375-1.313-8.5-2.063-8.5-.25 0-.312 1.062-.125 2.312zm35.061 3.25c0 3.625.188 5.438.625 5.063.375-.25 2.313-.25 4.375.062 3.688.5 8.438.188 8.438-.625 0-.25-2.188-.375-4.813-.375-7 0-7.062-.062-7.062-5.312 0-3.063-.25-4.375-.75-4.375-.625 0-.813 1.5-.813 5.562zM59.25 55.513c0 .312.437.625.937.625s.937-.313.937-.625c0-.375-.437-.625-.937-.625s-.938.25-.938.625zm5.312 2c.5 2.812 2.062 6.437 2.562 5.937.188-.187-.187-1.812-.75-3.625-.812-2.437-.875-3.375-.375-3.562 1.25-.375.813-1.375-.562-1.375-1.188 0-1.25.25-.875 2.625zm-38.437-.125c0 .312 1.625.687 3.625.812 3.437.188 3.375.188-.938.313l-4.562.125v4.437l5.812-.187 5.75-.188.188-1.75c.125-1.125-.125-1.812-.75-2.062-.563-.188-1-.75-1-1.25 0-.688-1-.875-4.063-.875-2.25 0-4.062.25-4.062.625zm2.375 2.937c-.625.125-1.625.125-2.188 0-.625-.187-.125-.312 1.063-.312 1.187 0 1.687.125 1.125.312zm5.625 0c-.625.125-1.75.125-2.5 0-.813-.125-.313-.25 1.062-.25 1.375-.062 2 .063 1.438.25zm-5.625 1.25c-.625.125-1.625.125-2.188 0-.625-.187-.125-.312 1.063-.312 1.187 0 1.687.125 1.125.312zm5.625 0c-.625.125-1.75.125-2.5 0-.813-.125-.313-.25 1.062-.25 1.375-.062 2 .063 1.438.25zm26.249-3.812c-.312.25-.5 1-.5 1.625s-.5 1.875-1.062 2.812c-.875 1.313-.875 1.563-.188 1.313 1.25-.375 2.625-3.313 2.375-4.938-.125-.75-.375-1.062-.625-.812zM69 61.2c-.376 2.875-.188 4.375.5 3.625.437-.5.812-6.812.374-6.812-.25 0-.625 1.437-.875 3.187zm4 .25c0 1.875.312 3.438.624 3.438.375 0 .625-1.563.625-3.438 0-1.875-.25-3.437-.625-3.437-.312 0-.625 1.562-.625 3.437zm-56.25-.312c.812 1.5 3.625 3.437 4.187 2.875.25-.188-.187-.813-.937-1.375-1.75-1.188-1.75-1.938.062-2.313.75-.125.188-.312-1.312-.375-2.5-.062-2.625 0-2 1.188zm23.312.437c-.812.125-1.437.563-1.437.938s.625.5 1.437.25c.75-.188 1.75-.375 2.188-.375.437 0 .625-.313.437-.625-.187-.375-.562-.563-.812-.563-.25.063-1.063.25-1.813.375zm15.312 0c-1.75.25-2.5 1.438-.937 1.438 1.5 0 3.562-.75 3.562-1.313 0-.312-.187-.5-.437-.5-.313.063-1.25.25-2.188.375zM23 64.263c0 .375 2.687.625 6.875.625 4.187 0 6.875-.25 6.875-.625s-2.688-.625-6.875-.625c-4.188 0-6.875.25-6.875.625z"/></g></svg>